<?xml version="1.0" encoding="UTF-8" standalone="no"?>
<svg
   xmlns:dc="http://purl.org/dc/elements/1.1/"
   xmlns:cc="http://creativecommons.org/ns#"
   xmlns:rdf="http://www.w3.org/1999/02/22-rdf-syntax-ns#"
   xmlns:svg="http://www.w3.org/2000/svg"
   xmlns="http://www.w3.org/2000/svg"
   xmlns:sodipodi="http://sodipodi.sourceforge.net/DTD/sodipodi-0.dtd"
   xmlns:inkscape="http://www.inkscape.org/namespaces/inkscape"
   width="24"
   height="24"
   viewBox="0 0 24 24"
   version="1.1"
   id="svg4"
   sodipodi:docname="iconmonstr-gear-1.svg"
   inkscape:version="0.92.3 (2405546, 2018-03-11)">
  <path
     d="M 23.102574,13.495147 V 10.504853 C 21.575045,9.9617525 20.610046,9.8090921 20.124308,8.6368454 V 8.6359202 C 19.63672,7.4599726 20.21683,6.6615125 20.907965,5.2061502 L 18.79385,3.0920351 C 17.34959,3.7785442 16.542803,4.364205 15.36408,3.8756917 h -9.25e-4 C 14.189057,3.3890289 14.035472,2.4175537 13.495147,0.89742637 H 10.504853 C 9.9663786,2.410152 9.8118678,3.3881037 8.6368454,3.8756917 H 8.6359202 C 7.4599726,4.364205 6.6633629,3.7850207 5.2061502,3.0920351 L 3.0920351,5.2061502 C 3.7813199,6.6568864 4.364205,7.4581222 3.8756917,8.6359202 3.3881037,9.8118678 2.410152,9.9663786 0.89742637,10.504853 v 2.990294 c 1.50995003,0.536624 2.49067733,0.692985 2.97826533,1.868008 0.4903637,1.186125 -0.1054744,2.004014 -0.7836566,3.42977 l 2.1141151,2.11504 c 1.445185,-0.687434 2.251972,-1.27217 3.42977,-0.783657 h 9.252e-4 c 1.1750224,0.486663 1.328608,1.460914 1.8680076,2.978266 h 2.990294 c 0.538474,-1.513651 0.69391,-2.488827 1.875409,-2.981041 h 9.26e-4 c 1.16762,-0.484813 1.961454,0.09345 3.421443,0.787357 l 2.114115,-2.11504 c -0.68836,-1.44611 -1.27217,-2.251047 -0.784582,-3.428845 0.487588,-1.175948 1.46924,-1.332309 2.980116,-1.869858 z M 12,15.700858 C 9.9562012,15.700858 8.2991421,14.043799 8.2991421,12 8.2991421,9.9562012 9.9562012,8.2991421 12,8.2991421 c 2.043799,0 3.700858,1.6570591 3.700858,3.7008579 0,2.043799 -1.657059,3.700858 -3.700858,3.700858 z"
     id="path2"
     style="fill:none;stroke:#ffffff;stroke-width:1.25;stroke-opacity:1"/>
</svg>
